<svg width="143" height="200" viewBox="0 0 143 200" fill="none" xmlns="http://www.w3.org/2000/svg">
<path d="M78.7923 0L32.6422 46.1501C58.1227 71.6306 99.462 71.6306 124.942 46.1501L78.7923 0Z" fill="#FBFBFB"/>
<path d="M63.4173 200L109.567 153.85C84.087 128.369 42.7477 128.369 17.2672 153.85L63.4173 200Z" fill="#FBFBFB"/>
<path d="M9.55518 69.2372C-3.18506 81.9774 -3.18506 102.647 9.55518 115.387C22.2954 128.128 42.9651 128.128 55.7053 115.387C68.4456 102.647 68.4456 81.9774 55.7053 69.2372L32.6182 46.1501L9.55518 69.2372Z" fill="#FBFBFB"/>
<path d="M86.4797 84.6126C73.7395 97.3528 73.7395 118.022 86.4797 130.763L109.567 153.85L132.654 130.763C145.394 118.022 145.394 97.3528 132.654 84.6126C119.89 71.8723 99.2441 71.8723 86.4797 84.6126Z" fill="#FBFBFB"/>
</svg>
