<svg width="73" height="100" viewBox="0 0 73 100" fill="none" xmlns="http://www.w3.org/2000/svg">
<path d="M40.3439 0L17.2689 23.0751C30.0091 35.8153 50.6787 35.8153 63.419 23.0751L40.3439 0Z" fill="url(#paint0_linear_9_345)"/>
<path d="M32.6564 100L55.7315 76.9249C42.9912 64.1847 22.3216 64.1847 9.58136 76.9249L32.6564 100Z" fill="url(#paint1_linear_9_345)"/>
<path d="M5.72534 34.6186C-0.644776 40.9887 -0.644776 51.3235 5.72534 57.6937C12.0955 64.0638 22.4303 64.0638 28.8004 57.6937C35.1705 51.3235 35.1705 40.9887 28.8004 34.6186L17.2568 23.075L5.72534 34.6186Z" fill="url(#paint2_linear_9_345)"/>
<path d="M44.1876 42.3063C37.8175 48.6764 37.8175 59.0112 44.1876 65.3814L55.7315 76.9249L67.2748 65.3814C73.6449 59.0112 73.6449 48.6764 67.2748 42.3063C60.8926 35.9362 50.5698 35.9362 44.1876 42.3063Z" fill="url(#paint3_linear_9_345)"/>
<defs>
<linearGradient id="paint0_linear_9_345" x1="72.0523" y1="-3.01353e-06" x2="0.94775" y2="100" gradientUnits="userSpaceOnUse">
<stop stop-color="#FF5001"/>
<stop offset="0.5" stop-color="#F67011"/>
<stop offset="1" stop-color="#FBFBFB"/>
</linearGradient>
<linearGradient id="paint1_linear_9_345" x1="72.0523" y1="-3.01353e-06" x2="0.94775" y2="100" gradientUnits="userSpaceOnUse">
<stop stop-color="#FF5001"/>
<stop offset="0.5" stop-color="#F67011"/>
<stop offset="1" stop-color="#FBFBFB"/>
</linearGradient>
<linearGradient id="paint2_linear_9_345" x1="72.0523" y1="-3.01353e-06" x2="0.94775" y2="100" gradientUnits="userSpaceOnUse">
<stop stop-color="#FF5001"/>
<stop offset="0.5" stop-color="#F67011"/>
<stop offset="1" stop-color="#FBFBFB"/>
</linearGradient>
<linearGradient id="paint3_linear_9_345" x1="72.0523" y1="-3.01353e-06" x2="0.94775" y2="100" gradientUnits="userSpaceOnUse">
<stop stop-color="#FF5001"/>
<stop offset="0.5" stop-color="#F67011"/>
<stop offset="1" stop-color="#FBFBFB"/>
</linearGradient>
</defs>
</svg>
