<svg width="80" height="50" viewBox="0 0 80 50" fill="none" xmlns="http://www.w3.org/2000/svg">
<path d="M80 30C80 41.0457 62.0914 50 40 50C17.9086 50 0 41.0457 0 30C0 18.9543 17.9086 10 40 10C62.0914 10 80 18.9543 80 30Z" fill="#FF5001"/>
<path d="M0 20H80V30H0V20Z" fill="#FF5001"/>
<path d="M80 20C80 31.0457 62.0914 40 40 40C17.9086 40 0 31.0457 0 20C0 8.9543 17.9086 0 40 0C62.0914 0 80 8.9543 80 20Z" fill="#F67011"/>
<path d="M4.98926 31C6.77325 32.4941 8.8937 33.8487 11.2686 35.0361C18.6732 38.7385 28.8327 41 40 41C51.1673 41 61.3268 38.7385 68.7314 35.0361C71.1063 33.8487 73.2267 32.4941 75.0107 31H78.9434C78.4386 35.5764 74.4864 39.9233 67.8369 43.248C60.7645 46.7842 50.924 49 40 49C29.076 49 19.2355 46.7842 12.1631 43.248C5.51361 39.9233 1.56142 35.5764 1.05664 31H4.98926ZM71.6963 31C70.5356 31.7896 69.2474 32.5428 67.8369 33.248C60.7645 36.7842 50.924 39 40 39C29.076 39 19.2355 36.7842 12.1631 33.248C10.7526 32.5428 9.4644 31.7896 8.30371 31H71.6963ZM78.5654 27.2041C78.7501 27.7976 78.8768 28.3966 78.9434 29H77.1152C77.6493 28.4182 78.133 27.8187 78.5654 27.2041ZM74.2705 21C75.6897 22.2698 76.8082 23.6107 77.5996 25C76.8082 26.3893 75.6897 27.7302 74.2705 29H5.72949C4.31014 27.7301 3.19079 26.3895 2.39941 25C3.19079 23.6105 4.31014 22.2699 5.72949 21H74.2705ZM1.43359 27.2041C1.86613 27.8188 2.35056 28.4181 2.88477 29H1.05664C1.12318 28.3967 1.24892 27.7976 1.43359 27.2041ZM2.88477 21C2.35075 21.5817 1.86602 22.1804 1.43359 22.7949C1.24907 22.2018 1.12315 21.603 1.05664 21H2.88477ZM78.9434 21C78.8768 21.6031 78.75 22.2017 78.5654 22.7949C78.1331 22.1806 77.6491 21.5816 77.1152 21H78.9434ZM40 1C50.924 1 60.7645 3.2158 67.8369 6.75195C74.4864 10.0767 78.4386 14.4236 78.9434 19H75.0107C73.2267 17.5059 71.1063 16.1513 68.7314 14.9639C61.3268 11.2615 51.1673 9 40 9C28.8327 9 18.6732 11.2615 11.2686 14.9639C8.8937 16.1513 6.77325 17.5059 4.98926 19H1.05664C1.56142 14.4236 5.51361 10.0767 12.1631 6.75195C19.2355 3.2158 29.076 1 40 1ZM40 11C50.924 11 60.7645 13.2158 67.8369 16.752C69.2474 17.4572 70.5356 18.2104 71.6963 19H8.30371C9.4644 18.2104 10.7526 17.4572 12.1631 16.752C19.2355 13.2158 29.076 11 40 11Z" stroke="#FF5001" stroke-width="2"/>
<path d="M40 1C50.924 1 60.7645 3.2158 67.8369 6.75195C74.9692 10.3181 79 15.06 79 20C79 24.94 74.9692 29.6819 67.8369 33.248C60.7645 36.7842 50.924 39 40 39C29.076 39 19.2355 36.7842 12.1631 33.248C5.03081 29.6819 1 24.94 1 20C1 15.06 5.03081 10.3181 12.1631 6.75195C19.2355 3.2158 29.076 1 40 1Z" fill="url(#paint0_linear_174_6438)" stroke="#FF5001" stroke-width="2"/>
<defs>
<linearGradient id="paint0_linear_174_6438" x1="40" y1="0" x2="40" y2="40" gradientUnits="userSpaceOnUse">
<stop stop-color="#F67011"/>
<stop offset="1" stop-color="#F67011"/>
</linearGradient>
</defs>
</svg>
