<svg width="80" height="50" viewBox="0 0 80 50" fill="none" xmlns="http://www.w3.org/2000/svg">
<path d="M80 30C80 41.0457 62.0914 50 40 50C17.9086 50 0 41.0457 0 30C0 18.9543 17.9086 10 40 10C62.0914 10 80 18.9543 80 30Z" fill="#FFBF00"/>
<path d="M0 20H80V30H0V20Z" fill="#FFBF00"/>
<path d="M80 20C80 31.0457 62.0914 40 40 40C17.9086 40 0 31.0457 0 20C0 8.9543 17.9086 0 40 0C62.0914 0 80 8.9543 80 20Z" fill="#FFBF00"/>
<path d="M80 20C80 31.0457 62.0914 40 40 40C17.9086 40 0 31.0457 0 20C0 8.9543 17.9086 0 40 0C62.0914 0 80 8.9543 80 20Z" fill="#FFBF00"/>
<path d="M39.96 0C17.88 0 0 8.96 0 20C0 31.04 17.88 40 39.96 40C62.08 40 80 31.04 80 20C80 8.96 62.08 0 39.96 0ZM52.88 30.78L40 26.9L27.12 30.78C25.6 31.24 23.72 30.56 24.12 29.7L27.52 22.38L16.2 17.48C14.88 16.9 15.6 15.8 17.36 15.72L32.32 15.08L38.16 8.18C38.84 7.36 41.16 7.36 41.84 8.18L47.68 15.06L62.64 15.7C64.4 15.78 65.12 16.88 63.76 17.46L52.44 22.36L55.84 29.7C56.24 30.56 54.4 31.24 52.88 30.78Z" fill="#FFDC73"/>
<path d="M39.9795 1C50.9102 1.00263 60.7534 3.21995 67.8281 6.75488C74.4185 10.0479 78.3597 14.3419 78.9268 18.8662C78.9739 19.2428 79 19.6207 79 20C79 24.9367 74.9671 29.678 67.8281 33.2451C60.7534 36.7801 50.9102 38.9964 39.9795 38.999C29.0637 38.9963 19.2311 36.782 12.1631 33.248C5.57856 29.9558 1.64071 25.661 1.07422 21.1338C1.02713 20.7572 1 20.3794 1 20C1 19.4847 1.0462 18.9719 1.13281 18.4619C1.877 14.0839 5.77487 9.94606 12.1631 6.75195C19.2311 3.21801 29.0637 1.00277 39.9795 1ZM40 6.56543C39.5405 6.56543 39.0611 6.62724 38.624 6.76562C38.2546 6.88264 37.8466 7.07632 37.5234 7.39648L37.3965 7.53418L31.8389 14.0996L17.3174 14.7207H17.3145C16.7779 14.7451 16.2846 14.8492 15.8643 15.0254C15.4567 15.1963 15.0512 15.4644 14.7891 15.8633C14.5018 16.3004 14.4143 16.8696 14.6777 17.4102C14.8834 17.8319 15.2471 18.1212 15.6318 18.3174L15.7979 18.3955L15.8027 18.3975L26.1807 22.8896L23.2129 29.2783C22.9282 29.8906 23.0822 30.4979 23.4287 30.9258C23.7318 31.3 24.1657 31.5334 24.5605 31.6758C25.3642 31.9656 26.4348 32.0321 27.4092 31.7373L27.4082 31.7363L40 27.9434L52.5908 31.7363V31.7373C53.5637 32.0316 54.6257 31.9664 55.4238 31.6738C55.8159 31.5301 56.2464 31.2942 56.5449 30.916C56.8647 30.5105 57.0079 29.9555 56.7939 29.3916L56.7471 29.2783L53.7783 22.8691L64.1572 18.3779L64.1562 18.377C64.6042 18.1852 65.0492 17.884 65.2939 17.4111C65.5716 16.8748 65.499 16.2994 65.2109 15.8516C64.9504 15.4465 64.5423 15.1757 64.1357 15.0049C63.7681 14.8505 63.3441 14.7524 62.8848 14.7139L62.6855 14.7012H62.6826L48.1582 14.0791L42.6025 7.5332H42.6016C42.2634 7.1303 41.7951 6.89838 41.376 6.76562C40.9389 6.62724 40.4595 6.56543 40 6.56543ZM38.1602 8.17969L38.9238 8.82617L38.9297 8.81836C38.9267 8.82199 38.9422 8.80282 38.9951 8.77148C39.0477 8.74038 39.1248 8.7047 39.2285 8.67188C39.4389 8.60535 39.7097 8.56543 40 8.56543C40.2903 8.56543 40.5611 8.60535 40.7715 8.67188C40.8752 8.7047 40.9523 8.74038 41.0049 8.77148L41.0703 8.81836L41.0771 8.82715L46.918 15.707L47.2002 16.04L47.6377 16.0596L62.5947 16.6982V16.6992C62.7137 16.7046 62.822 16.7171 62.9199 16.7324L52.043 21.4424L51.1016 21.8496L51.5322 22.7803L54.7744 29.7793C54.762 29.7843 54.7492 29.7908 54.7354 29.7959C54.384 29.9247 53.8677 29.9751 53.3779 29.875L53.1699 29.8232L53.168 29.8223L40.2881 25.9424L40 25.8555L39.7119 25.9424L26.832 29.8223L26.8301 29.8232C26.2847 29.9882 25.6553 29.944 25.2393 29.7939C25.2209 29.7873 25.2045 29.7789 25.1885 29.7725L28.4268 22.8008L28.8594 21.8701L27.917 21.4619L17.0488 16.7578C17.1549 16.7399 17.2735 16.7247 17.4053 16.7188L17.4043 16.7178L32.3623 16.0791L32.8008 16.0605L33.083 15.7256L38.9229 8.82617L38.1602 8.17969Z" stroke="#FFBF00" stroke-width="2"/>
</svg>
